<?xml version="1.0" encoding="UTF-8"?> <svg xmlns="http://www.w3.org/2000/svg" width="1088" height="56" viewBox="0 0 1088 56" fill="none"> <path fill-rule="evenodd" clip-rule="evenodd" d="M820.263 0.224209C667.3 0.86082 623.565 1.27495 538.695 2.89154C450.743 4.56683 387.8 6.24616 287.929 9.582C264.777 10.3553 239.987 11.0892 210.925 11.8615C104.167 14.6982 83.393 15.4541 48.881 17.7566C31.7813 18.8977 16.9932 19.6874 8.70483 19.9026C1.33586 20.0937 0 20.2141 0 20.6866C0 21.1043 11.7857 21.4702 18.2319 21.2525C20.5421 21.1748 26.8008 20.9842 32.1409 20.8295C37.481 20.6746 49.2325 20.2588 58.2554 19.9056C79.5026 19.0733 89.704 18.8108 126.22 18.1571C187.607 17.0581 233.981 16.002 290.942 14.4058C311.934 13.8174 339.807 13.0363 352.88 12.6699C452.038 9.89053 573.159 7.41215 647.171 6.64849C736.985 5.72131 1015.81 4.90163 1011.1 5.57818C1009.23 5.84649 977.328 7.8421 958.201 8.88695C940.632 9.84683 911.279 11.2313 875.17 12.8031C858.045 13.5488 834.542 14.5808 822.941 15.0965C779.36 17.0342 765.006 17.6352 740.245 18.5597C626.177 22.8182 550.83 26.529 445.955 33.0527C383.619 36.9303 332.525 41.3818 275.505 47.9031C243.087 51.6107 239.929 52.2693 243.119 54.6563C245.196 56.2093 261.553 56.4106 294.544 55.2888C354.836 53.2391 411.493 51.6493 466.378 50.4672C500.805 49.7258 505.365 49.6014 540.369 48.4504C553.443 48.0208 576.042 47.3924 590.589 47.0547L617.039 46.4406L581.885 46.1986C528.614 45.8316 471.47 45.8539 452.651 46.249C390.346 47.557 356.457 48.5638 301.103 50.7508C287.91 51.2721 276.779 51.6539 276.368 51.5992C272.404 51.07 361.131 43.0753 403.458 40.1477C499.008 33.5384 597.404 28.6072 748.616 22.849C762.426 22.3231 790.148 21.1726 810.219 20.2926C830.29 19.4124 861.929 18.0265 880.527 17.2125C952.111 14.0798 973.439 12.913 1042.24 8.3656C1086.3 5.453 1086.53 5.42807 1087.73 3.51261C1089.06 1.40657 1085.53 0.450983 1075.41 0.177843C1065.8 -0.081894 885.938 -0.0491994 820.263 0.224209ZM619.892 46.2281C620.725 46.2921 621.931 46.2897 622.571 46.2227C623.211 46.1557 622.529 46.1031 621.056 46.1061C619.583 46.109 619.06 46.164 619.892 46.2281Z" fill="white"></path> </svg> 