<?xml version="1.0" encoding="UTF-8"?> <svg xmlns="http://www.w3.org/2000/svg" width="776" height="64" viewBox="0 0 776 64" fill="none"> <path fill-rule="evenodd" clip-rule="evenodd" d="M771.593 0.609068C765.144 1.61889 756.341 2.7721 741.086 4.60521C707.491 8.6423 686.285 12.2041 623.751 24.3133C581.22 32.5491 567.877 34.9003 552.881 36.801C546.284 37.6372 537.257 37.9078 533.937 37.3687L532.123 37.0745L532.456 36.2126C533.19 34.3151 536.128 31.9247 544.546 26.3768C557.959 17.5369 561.361 14.1227 560.726 10.1398C559.166 0.357934 527.708 2.19669 467.193 15.6071C462.786 16.5838 449.48 19.7378 437.625 22.616C391.254 33.8734 382.207 35.8404 376.644 35.8736L373.828 35.8903L373.937 35.0461C374.108 33.7162 376.014 31.6441 382.242 26.018C394.904 14.5784 396.615 9.87669 389.331 6.53677C382.475 3.39358 360.766 4.65016 333.935 9.74293C313.773 13.5696 272.069 23.4322 215.661 37.7125C163.279 50.9739 155.175 52.852 153.286 52.1673C152.646 51.9351 155.483 49.7854 168.036 40.9858C192.295 23.9814 196.329 20.2912 196.387 15.0534C196.493 5.44251 179.314 6.65834 128.06 19.889C94.3587 28.5885 64.2834 38.3296 24.9331 53.2911C4.16256 61.1884 0 62.907 0 63.586C0 64.1026 1.22779 64.1496 1.63752 63.6486C1.96371 63.2506 9.13098 60.6217 18.7735 57.3638C22.2584 56.1864 28.9113 53.8523 33.5577 52.177C56.101 44.0489 95.7967 31.3235 114.284 26.2978C148.666 16.9516 172.815 11.7162 183.277 11.3398C189.258 11.1247 190.299 11.7466 189.949 15.3263C189.502 19.8921 184.275 24.587 162.193 40.2579C145.196 52.3206 144.183 53.4647 149.611 54.4636C156.479 55.7273 165.582 53.8829 221.059 39.9871C322.303 14.6275 360.646 6.92894 380.124 8.04995C389.387 8.58316 387.931 14.1163 375.535 25.488C365.903 34.3233 364.881 36.7231 370.166 38.0914C377.514 39.9936 387.175 38.2881 443.994 25.0589C493.546 13.5218 521.264 8.48853 539.227 7.76643C549.707 7.34496 551.831 8.02848 551.344 11.6672C550.957 14.5653 547.998 17.1831 536.715 24.6074C519.862 35.6972 518.819 39.6038 532.341 40.9994C546.804 42.4924 561.629 40.4131 628.445 27.5193C664.12 20.6349 676.448 18.37 703.192 13.7862C712.682 12.1598 725.988 9.72928 732.761 8.38516C739.534 7.04086 750.883 4.83833 757.982 3.49057C765.081 2.14281 772.156 0.79942 773.705 0.505337C777.458 -0.207123 776.507 -0.160535 771.593 0.609068Z" fill="black"></path> </svg> 