<?xml version="1.0" encoding="UTF-8"?> <svg xmlns="http://www.w3.org/2000/svg" width="1676" height="240" viewBox="0 0 1676 240" fill="none"> <path fill-rule="evenodd" clip-rule="evenodd" d="M1304.13 0.199804C1087.44 3.10062 943.829 14.2849 656.613 50.628C631.354 53.8234 591.861 58.8025 568.853 61.6929C379.311 85.4949 114.774 144.529 41.9878 179.268C26.893 186.472 0 206.477 0 210.502C0 211.168 1.25594 210.123 6.19599 205.351C28.971 183.345 90.077 163.666 240.546 129.879C329.428 109.92 426.554 91.9011 506.556 80.53C567.624 71.8497 857.4 38.0712 867.148 38.498C869.149 38.585 858.099 40.3208 842.593 42.355C676.018 64.211 619.299 73.0717 518.834 92.9389C440.99 108.332 395.325 119.62 278.631 152.319C234.728 164.62 235.996 164.163 235.299 167.963C233.535 177.589 239.158 177.803 275.216 169.482C519.753 113.058 665.691 92.5393 894.431 82.4228C955.976 79.701 1169.18 77.2088 1165.44 79.2547C1163.31 80.4236 1099.19 87.5862 991.741 98.6562C751.342 123.426 597.523 152.845 428.174 206.444C381.218 221.305 372.792 225.982 376.89 234.905C381.218 244.327 407.983 241.647 538.841 218.682C734.821 184.287 807.598 175.075 964.458 164.804C1000.92 162.417 1063.56 159.978 1061.77 161.016C1061.27 161.305 1021.77 167.709 974.007 175.245C854.485 194.1 777.79 207.924 775.112 211.095C770.982 215.983 772.174 223.033 777.486 225.137C783.962 227.703 802.272 226.3 844.412 220.005C935.799 206.353 1027.13 198.87 1162.17 193.968C1182.38 193.234 1205.91 192.079 1214.46 191.402C1234.36 189.827 1265.89 189.831 1280.49 191.411C1286.74 192.087 1294.51 192.921 1297.77 193.265C1310.1 194.566 1267.34 186.185 1249.11 183.727C1203.42 177.567 1143.86 176.188 1073.23 179.654C1057.03 180.45 1043.63 180.9 1043.46 180.656C1043.1 180.142 1059.52 177.746 1139.07 166.707C1200.06 158.242 1201.59 157.869 1203.92 150.877C1205.39 146.442 1203.92 141.165 1200.46 138.497C1197.84 136.478 1108.76 137.115 1060.4 139.498C944.469 145.213 883.034 150.086 805.761 159.693C727.576 169.413 675.637 178.102 545.733 203.19C466.646 218.465 425.004 225.813 411.065 226.956L402.426 227.665L412.884 223.802C445.146 211.892 552.686 182.834 613.87 169.496C740.966 141.79 827.823 129.077 1022.66 109.664C1186.38 93.3527 1219.9 88.4644 1222.43 80.5417C1225.16 72.0053 1220.3 66.9341 1206.82 64.2694C1188.45 60.6356 961.634 61.5632 881.244 65.6005C802.42 69.5599 708.804 77.2257 659.341 83.772C654.09 84.4674 648.36 84.9616 646.609 84.8708C633.739 84.204 810.836 59.6834 912.165 48.1035C1023.17 35.4183 1110.99 28.0961 1232.74 21.3747C1311.46 17.03 1512.41 18.8475 1593.79 24.6427C1669.17 30.011 1671.87 30.0836 1674.16 26.8248C1676.54 23.4258 1676.61 20.9051 1674.39 17.7513C1671.58 13.7373 1655.72 11.6111 1619.71 10.4176C1606.45 9.97777 1577.19 8.1991 1554.68 6.46328C1532.17 4.72876 1504.34 2.72182 1492.84 2.0031C1471.13 0.647399 1354.16 -0.469614 1304.13 0.199804ZM903.315 35.2937C902.7 35.6492 901.472 35.6712 900.587 35.3417C899.702 35.0122 900.206 34.7216 901.706 34.6956C903.207 34.6697 903.931 34.9382 903.315 35.2937ZM891.488 36.6533C890.369 36.9607 888.323 36.9686 886.941 36.6715C885.558 36.3731 886.473 36.1214 888.974 36.111C891.475 36.1019 892.607 36.3458 891.488 36.6533ZM879.198 37.9662C877.822 38.2633 875.572 38.2633 874.196 37.9662C872.82 37.6691 873.946 37.4265 876.697 37.4265C879.448 37.4265 880.574 37.6691 879.198 37.9662ZM641.38 85.9541C640.255 86.2629 638.413 86.2629 637.288 85.9541C636.163 85.644 637.083 85.391 639.334 85.391C641.585 85.391 642.505 85.644 641.38 85.9541ZM631.376 87.1943C630.752 87.555 629.729 87.555 629.103 87.1943C628.478 86.835 628.989 86.5405 630.24 86.5405C631.49 86.5405 632.002 86.835 631.376 87.1943ZM1305.72 194.872C1306.35 195.233 1307.37 195.233 1308 194.872C1308.62 194.513 1308.11 194.218 1306.86 194.218C1305.61 194.218 1305.1 194.513 1305.72 194.872Z" fill="#3F3F3F"></path> </svg> 