<?xml version="1.0" encoding="UTF-8"?> <svg xmlns="http://www.w3.org/2000/svg" width="1132" height="80" viewBox="0 0 1132 80" fill="none"> <path fill-rule="evenodd" clip-rule="evenodd" d="M536.992 0.202801C466.648 1.87623 331.581 17.2595 204.53 38.0679C194.285 39.746 180.787 41.9581 174.536 42.9838C90.2384 56.8146 44.9023 65.5365 13.1685 74.0294C0.78371 77.3442 -0.280294 77.7459 0.0474321 78.9845C0.526076 80.7917 2.54106 80.5126 25.5217 75.4555C49.3017 70.2226 70.6159 66.4229 129.071 56.996C324.441 25.4891 415.692 13.9386 518.048 7.76061C538.106 6.5498 570.144 6.76066 570.144 8.10326C570.144 9.89666 550.049 16.0129 503.525 28.3804C446.289 43.5957 411.446 53.6887 408.36 55.9471C403.087 59.8059 408.887 62.5905 421.436 62.2255C428.606 62.017 430.235 61.8592 463.112 58.1872C557.505 47.6445 617.832 42.2937 699.592 37.2122C824.1 29.4736 903.432 26.6188 1052.58 24.5088C1106.17 23.7508 1108.94 23.645 1118.83 21.9854C1122.64 21.3457 1127.2 20.7206 1128.95 20.5959C1133.06 20.3042 1133.01 19.9312 1128.82 19.6561C1127 19.5361 1122.81 18.9637 1119.51 18.3838C1111.38 16.954 1105.98 16.8793 1059.52 17.5525C903.771 19.8088 821.818 22.6944 703.065 30.1032C640.61 33.9995 612.78 36.1167 567.302 40.4314C536.212 43.3808 454.149 51.9676 442.653 53.4738C436.381 54.2956 463.607 46.5428 511.43 33.8897C571.922 17.884 583.966 13.5369 584.022 7.68897C584.085 1.0946 573.09 -0.655542 536.992 0.202801Z" fill="#616161"></path> </svg> 